/* XPM */
static char *_c7f9ac893c64e61c3eb629947258bcd1dg88ZrQVDunTkdQ[] = {
/* columns rows colors chars-per-pixel */
"32 32 239 2 ",
"   c #191A0C",
".  c #221A17",
"X  c #1B3807",
"o  c #1A2E0B",
"O  c #263806",
"+  c #303518",
"@  c #1C1D21",
"#  c #273828",
"$  c #273932",
"%  c #343A2B",
"&  c #1D4200",
"*  c #294802",
"=  c #36480B",
"-  c #365603",
";  c #2A4619",
":  c #364B19",
">  c #385519",
",  c #235200",
"<  c #3E6C0E",
"1  c #1D4E35",
"2  c #2C4A29",
"3  c #374A26",
"4  c #3C552D",
"5  c #3C5B2B",
"6  c #375325",
"7  c #2A4838",
"8  c #334B34",
"9  c #384B39",
"0  c #2C563B",
"q  c #335233",
"w  c #3C5436",
"e  c #34533C",
"r  c #3C543C",
"t  c #345C3D",
"y  c #3B5B38",
"u  c #2E5728",
"i  c #3A6222",
"p  c #3A6139",
"a  c #415702",
"s  c #535509",
"d  c #4B5718",
"f  c #555513",
"g  c #635A08",
"h  c #695616",
"j  c #7D5717",
"k  c #73520C",
"l  c #476505",
"z  c #456117",
"x  c #54621C",
"c  c #56761B",
"v  c #5A7202",
"b  c #676705",
"n  c #6B6718",
"m  c #756519",
"M  c #6D7015",
"N  c #77791A",
"B  c #727307",
"V  c #544F24",
"C  c #46552B",
"Z  c #415D3A",
"A  c #455937",
"S  c #4D4D33",
"D  c #685A22",
"F  c #4A6629",
"G  c #5C7627",
"H  c #44643E",
"J  c #456333",
"K  c #5D7738",
"L  c #586B2D",
"P  c #67682A",
"I  c #776226",
"U  c #687829",
"Y  c #7A7627",
"T  c #766835",
"R  c #77763A",
"E  c #1D4943",
"W  c #1E475D",
"Q  c #294947",
"!  c #334C49",
"~  c #2C544B",
"^  c #2A5747",
"/  c #335544",
"(  c #3C5443",
")  c #365C44",
"_  c #3A5B43",
"`  c #35544C",
"'  c #345C4B",
"]  c #3D5B4B",
"[  c #39574C",
"{  c #364B55",
"}  c #2C5955",
"|  c #285759",
" . c #3C5653",
".. c #335C53",
"X. c #3C5A54",
"o. c #335D5C",
"O. c #38565C",
"+. c #33604C",
"@. c #396144",
"#. c #3B6258",
"$. c #2C6556",
"%. c #2A5363",
"&. c #3B5D61",
"*. c #375866",
"=. c #304A65",
"-. c #366662",
";. c #454946",
":. c #425B45",
">. c #435C4C",
",. c #47564A",
"<. c #515747",
"1. c #445957",
"2. c #4D4B4B",
"3. c #466547",
"4. c #516747",
"5. c #466556",
"6. c #4C7154",
"7. c #59764D",
"8. c #757A51",
"9. c #435B67",
"0. c #4D617C",
"q. c #845F1F",
"w. c #81740D",
"e. c #8E6627",
"r. c #877739",
"t. c #907231",
"y. c #A1783F",
"u. c #867C4C",
"i. c #A67443",
"p. c #857B6F",
"a. c #7C9D01",
"s. c #7A8417",
"d. c #6D8C16",
"f. c #7DA200",
"g. c #5F8025",
"h. c #628226",
"j. c #719231",
"k. c #7EA42D",
"l. c #79954C",
"z. c #6E8847",
"x. c #898408",
"c. c #8DB502",
"v. c #97B818",
"b. c #8CAA10",
"n. c #A3AB17",
"m. c #889823",
"M. c #888538",
"N. c #95873B",
"B. c #86983A",
"V. c #8F882D",
"C. c #86A928",
"Z. c #98B527",
"A. c #94AF3E",
"S. c #9AB936",
"D. c #9DAF25",
"F. c #A9A63C",
"G. c #B1B72E",
"H. c #9DC603",
"J. c #B3DB1A",
"K. c #A7D110",
"L. c #BAEB18",
"P. c #B9ED14",
"I. c #A4C827",
"U. c #ACD22D",
"Y. c #B8DB28",
"T. c #ABCE35",
"R. c #B7D839",
"E. c #AEC932",
"W. c #BCE529",
"Q. c #BFE337",
"!. c #C6F81C",
"~. c #C3D328",
"^. c #C2E928",
"/. c #C7F629",
"(. c #C4EB37",
"). c #CAF838",
"_. c #D3FB3B",
"`. c #D1E931",
"'. c #889641",
"]. c #9B9747",
"[. c #8A934C",
"{. c #AE984A",
"}. c #A4945A",
"|. c #B49D57",
" X c #98A546",
".X c #99B546",
"XX c #89A356",
"oX c #8DA54D",
"OX c #A2A544",
"+X c #A8A25A",
"@X c #A3B950",
"#X c #BAB750",
"$X c #978B6A",
"%X c #B19D6E",
"&X c #BDB368",
"*X c #B0AC6F",
"=X c #C6BE5C",
"-X c #D3BA73",
";X c #B8D748",
":X c #B8C254",
">X c #BBDA51",
",X c #A6C94A",
"<X c #BEE355",
"1X c #ADC86B",
"2X c #B3D16D",
"3X c #BFE262",
"4X c #C7D657",
"5X c #C8CF4D",
"6X c #CBF449",
"7X c #D8FD4A",
"8X c #C7E756",
"9X c #D8FC54",
"0X c #CFEE56",
"qX c #E4FB56",
"wX c #F1FF53",
"eX c #D3CF74",
"rX c #E6CC7C",
"tX c #D9FC64",
"yX c #D5F372",
"uX c #E1FF63",
"iX c #ECFF63",
"pX c #E7FF75",
"aX c #A69782",
"sX c #B0B08A",
"dX c #C7B583",
"fX c #D3B683",
"gX c #D8C686",
"hX c #DECD92",
"jX c #CFC182",
"kX c #E9D688",
"lX c #EBD195",
"zX c #F8F097",
"xX c #D6C9A3",
"cX c #ECDAB1",
"vX c #F9E8A8",
"bX c #FFFDB2",
"nX c #FFF9B8",
"mX c #F5F2AC",
"MX c #FEF8C4",
/* pixels */
"p H ) / O.*.*.%.*.o...' ) 0 e ] X.9.9.{ 6.4 6 H  .O.O...) 0 / ..",
"y t ) X.#.&.o.&.E ~ ' 0 q _ 3.:._ >.! $ H J F 4 5.9.&.X.) ) ..#.",
"5.`  .5.X.` / ) 6.p u y H H q ; J J Z 4.> & X F 8 ! ! ` / ' #.o.",
"5.` ` X.` / ) w u 5 i > * = K XXh.c * * h.1Xl.: r 1.9.X.) ) ' ~ ",
"t ) ) [  .1.1.( y C z G '.2X2XS.U.6X,Xk.v j.G : $ Q {  .) y t t ",
"0 @.] [ 1. .9 w O O l @XyXyX0X9X_.W.(.tX<X.XB.l.2 # $ 7 e q q @.",
"~ #.` ` 5.8 : z.mX.Xm.>XpXuX0X6X)./.6X(.6XtXtXA.oXK 6 w ( 7 Q { ",
"o.-.Q ` 6.2 F 2XA.S.I.I.Q.qXqX(._.K.H.f.f.c.T.S.:XU = 3 r ! { 9.",
"| -.o.#.2 5 - j.,XT.v.c.K.^._.7X/./.J.H.Y.v.Z.4XyXa O : w 7 `  .",
"-.~ ^ 0 3.5 * - l a.c.c.K./.).)._.).^.Y.9XU.v.Z.Z.v U F w ( 1.{ ",
"0 +.7 6.q J O U A.;XR.K.K.P.!._.9X0XR.K.(.Y.(.qX7XR.A.z 8 { *.=.",
"+.^ 6.2 A O d B.4X0X7X)././.L.).9XtX9X(.).Y.(.qXJ.I.S.c A Q { 0.",
"&.X.7 :.C R M F.5XqXwX_._._.).7XiX9X_.J.Y.v.b.a.v.b.d.- A 9 7 X.",
"O.Q ,.# 8.P N B G.wXwX`.W.).9X9X).L.J.H.K.I.8X8XR.T.C.- 6 r e e ",
",.,.;.3 S T g b w.n.~.~.~.W.W.^./.!.!.H.c.a.Z.Z.v.;X3Xg.6 8 :.6.",
":.A <.S $XdXgXrXF.x.x.n.E.n.n.R.7X/./.J.W.6XpXpXpX;Xk.* ; e ) 7 ",
"e r 4.S sXxXmXbXzX5Xx.g B t.e.V.5X6X(.W.).6XR.;X,Xj.* ; 0 #.^ ' ",
"3._ w A xXvXMXbXbXrX=Xw.{.y.t.j B C.Z.b.v.Z.Z.S.d.j.F 5 2 ] ' ' ",
"q q o 8.cXMXMXnXvXeX&Xm N.y.i.e.m B b N OXF.N g s N '.l.> 4 :.] ",
"p 4.3 sXMXMXMXvXjX+Xr.I I y.e.q.k m h m -XnXkXr.b N  X1XL 6 w >.",
"q y ; *XmXnXnXvX*Xr.D h h q.k j k h r.%XcXMXhX].n M M.XXL 4 w :.",
"3.4 = *XmXbXbXmX*Xu.*XdXvXgXrX-XlXfXfXlXlX-X}.M.f x x F ; Z 3.) ",
"3.; = B.:X4X:X#X].h T I }.|.kXzXlXgX+Xn g ].+XU = 6 2 2 1 +.+.' ",
"w 2 K .X>X4X5X5XV.V.&XhXjX-X#X{.N.n Y  XOX XoXXX; 2 7 ..} } E $.",
":.o l.2X>XuXqXqXG.:XN.M.+X|.M.Y h Y V.V. X@X'.L ; q ~ E Q o.-.} ",
"8 o l.1X<XuX9X9Xb.#XV.Y [.P s f s m N.].'.U x = ; 8 / Q ~ o.o.} ",
">.8 7.j.C.T.I.R.D.s.M Y P V d   D r.}.%Xu.V : C 6 4 4 y _ ] X. .",
">.8 u & , < l v l s.Y R P O O C V T $XaXp.2.% 3 C 3 6 A A ( ( 1.",
">.3.@.u i i - < a = P 8.+ o 4.A S S + .   @ $ 9 8 3 3 C A w 9 ,.",
"9 ) ) t @.p u 6 A C O + S 8 r :.<.<.2.;.1.1.1.Q e 8 8 y _ r r :.",
"3.3.' ..o.| O.1.,.9 S <.% # 5.X.X. .` / / +.' ^ } } } ....' ) ) ",
"e 7 Q o.%.W =.=.{ 2.;.2.,.( ` Q Q ~ ~ ^ 0 1 1 ^ | | | | | ^ 0 0 "
};
