/* XPM */
static char *e4f3935e169c40a0ad3c023aab182370VIsE8VvqVvWmMT7U[] = {
/* columns rows colors chars-per-pixel */
"32 32 246 2 ",
"   c #221A17",
".  c #1B2501",
"X  c #1D3A03",
"o  c #1A3411",
"O  c #283707",
"+  c #273718",
"@  c #353619",
"#  c #1C1D21",
"$  c #243925",
"%  c #283835",
"&  c #343A28",
"*  c #161417",
"=  c #1B4400",
"-  c #284702",
";  c #35480A",
":  c #355406",
">  c #2B4619",
",  c #364C18",
"<  c #37541F",
"1  c #235200",
"2  c #3D661E",
"3  c #3F6C00",
"4  c #1E5539",
"5  c #1B422D",
"6  c #2C4928",
"7  c #384A28",
"8  c #2E5728",
"9  c #34522B",
"0  c #3C552B",
"q  c #3C5B2D",
"w  c #3A5624",
"e  c #2A4938",
"r  c #334A3C",
"t  c #374A37",
"y  c #2B5739",
"u  c #335334",
"i  c #3B5436",
"p  c #33543C",
"a  c #3C543B",
"s  c #345B3B",
"d  c #3B5B3C",
"f  c #3A5A33",
"g  c #386227",
"h  c #35613E",
"j  c #3D6239",
"k  c #415704",
"l  c #535509",
"z  c #4B5817",
"x  c #565315",
"c  c #635A09",
"v  c #77550C",
"b  c #695517",
"n  c #765213",
"m  c #476505",
"M  c #54621C",
"N  c #536E0F",
"B  c #676705",
"V  c #6B6917",
"C  c #756518",
"Z  c #767A1B",
"A  c #74700A",
"S  c #464528",
"D  c #46552A",
"F  c #425B35",
"G  c #465939",
"H  c #4F4F36",
"J  c #6C5C21",
"K  c #486528",
"L  c #597524",
"P  c #46643A",
"I  c #5B7232",
"U  c #66692B",
"Y  c #7B6925",
"T  c #687727",
"R  c #7A7627",
"E  c #766635",
"W  c #7C7638",
"Q  c #697A36",
"!  c #1C4B44",
"~  c #1E475B",
"^  c #274A45",
"/  c #344D4A",
"(  c #2B5444",
")  c #2C524B",
"_  c #2A5949",
"`  c #335444",
"'  c #3C5343",
"]  c #355A43",
"[  c #3A5C43",
"{  c #35554B",
"}  c #345C4B",
"|  c #3D5B4B",
" . c #3B574D",
".. c #354A57",
"X. c #2C5955",
"o. c #275759",
"O. c #335C53",
"+. c #3B5A53",
"@. c #325C5A",
"#. c #3C5D5C",
"$. c #3A5657",
"%. c #366149",
"&. c #3A6357",
"*. c #2C6556",
"=. c #395662",
"-. c #2F5064",
";. c #366462",
":. c #464D47",
">. c #425B45",
",. c #475949",
"<. c #515745",
"1. c #445957",
"2. c #4D4C4A",
"3. c #446344",
"4. c #45684A",
"5. c #516744",
"6. c #5C7843",
"7. c #466556",
"8. c #4E7154",
"9. c #787D4E",
"0. c #6F7551",
"q. c #435B64",
"w. c #445A72",
"e. c #4D6371",
"r. c #805E1E",
"t. c #836D11",
"y. c #8E6722",
"u. c #877B3C",
"i. c #90722F",
"p. c #A27839",
"a. c #867C4E",
"s. c #857B6F",
"d. c #7C9D05",
"f. c #728C14",
"g. c #7DA200",
"h. c #5F8027",
"j. c #628224",
"k. c #77972F",
"l. c #6F9435",
"z. c #6B8730",
"x. c #7DA137",
"c. c #79954C",
"v. c #6E8847",
"b. c #89840A",
"n. c #8DB501",
"m. c #97B817",
"M. c #8EAC12",
"N. c #A5A81D",
"B. c #8D8C2F",
"V. c #898837",
"C. c #94873C",
"Z. c #879832",
"A. c #99882C",
"S. c #85A829",
"D. c #9AA925",
"F. c #98B625",
"G. c #89A73D",
"H. c #9AB938",
"J. c #A6A93E",
"K. c #B1AF37",
"L. c #9DC307",
"P. c #A5D30B",
"I. c #A3CB17",
"U. c #B4DE18",
"Y. c #A0C900",
"T. c #9FC22A",
"R. c #A7C825",
"E. c #B4D829",
"W. c #A7CD36",
"Q. c #AAD137",
"!. c #BBDA37",
"~. c #B7C031",
"^. c #BBE52E",
"/. c #BDE537",
"(. c #BEF526",
"). c #B7EE19",
"_. c #C3D231",
"`. c #C6F627",
"'. c #C4E939",
"]. c #CAF837",
"[. c #D1FF3A",
"{. c #D1E73A",
"}. c #879641",
"|. c #9B9648",
" X c #8A934E",
".X c #AE9848",
"XX c #A5965B",
"oX c #B49D59",
"OX c #98A745",
"+X c #98B545",
"@X c #90A759",
"#X c #A2A543",
"$X c #B7AD57",
"%X c #BCBE57",
"&X c #A8B152",
"*X c #978B68",
"=X c #B19D6E",
"-X c #ADA362",
";X c #B4AE72",
":X c #C6BE5B",
">X c #D3BA73",
",X c #A7C948",
"<X c #B8D849",
"1X c #B6D758",
"2X c #B3C859",
"3X c #BDE257",
"4X c #ADC76A",
"5X c #B3D171",
"6X c #BFE166",
"7X c #C6D051",
"8X c #C8ED48",
"9X c #CBF646",
"0X c #D4F947",
"qX c #C5E753",
"wX c #CEF656",
"eX c #D9FB58",
"rX c #D7EC5F",
"tX c #E8FA58",
"yX c #F6FF5D",
"uX c #D0CE71",
"iX c #E5CD7C",
"pX c #DAFD67",
"aX c #D5F374",
"sX c #E2FE63",
"dX c #E4FB69",
"fX c #E6FF79",
"gX c #A69782",
"hX c #AFAF87",
"jX c #C7B583",
"kX c #D3B683",
"lX c #D8C687",
"zX c #DDCC97",
"xX c #CFC184",
"cX c #E9D688",
"vX c #EBD195",
"bX c #FFEF95",
"nX c #CDC5A1",
"mX c #EBD9AF",
"MX c #F9E7AB",
"NX c #E5F5A3",
"BX c #FEF9AB",
"VX c #F4E9BB",
"CX c #FFF9B8",
"ZX c #ECECAE",
"AX c #FFF6C3",
"SX c #FFFBCA",
/* pixels */
"O.( y s O.$.$. .P w 0 8...w.q.$.| s s [ } } @.;.-.-.=.O.) [ P j ",
"&.} h %.+.#.q.7.q K P G % / 1.' >.3.%.u y %.] ^ &.#.#.&.+.[ s s ",
"&.%.h s / ....r P X X w 5.f K K > u P P g 8 j 8.] ] ` +.7.{ { 7.",
"( ] s [ +.q.1.' , c.5Xh.- - N j.@XQ : - : 2 w 8 u [ ` { +.{ { 7.",
"} ] s d  ./ r 6 , L k.N S.,XqXQ.H.1X2XG.L z D f ' 1.1.+.| [ d d ",
"&.p u p r $ $ > c.Z.H.3XpX8X^.0XeXwXpXaX&Xm X O i r  .1.| | %.u ",
"{ e e a i 7 6.@X+XaXpXwX8X[.`.].9X8XpXfX<Xk.+XNXv., 6 4.{ { &._ ",
"q./ r a 7 ; Q 4X+XQ.M.g.g.L.P.[.'.eXtX/.R.T.H.G.5XK 6 8.` ^ ;.@.",
"=...e a , - : aXqXm.m.E.L.E.'.].0X0X^.I.n.I.Q.,Xk.: q 6 &.O.;.o.",
"..=./ i K j.f.F.m.M.E.eX!.'.8X0X].].(.P.n.n.d.m : - w 4.y ( _ &.",
"..=./ 7 z +X<XeXtX'.E.'.I./.qXwX[.`.).P.I.!.<X+XT O P u 4.e %.y ",
"e./ e f L +XW.E.sX8X!.9X'.eXeXeX].(.`.].].0XrXuX}.z O f 6 8.s %.",
"$.^ / F : f.M.m.d.M.m.!.E.0XeXdXwX9X9X0X0XtXtX7XJ.V Q D >.e &.#.",
"/ ` ' 9 : S.Q.!.qXqXR.I.L.U.^.8XpXeX8X!.{.yXtXK.A Z U 9.+ ,.^ 1.",
"7.| t 0 h.6X<XF.F.F.d.n.Y.`.`.].'./.!._._._.N.t.B c E H 7 G ,.>.",
"e ] p 6 - x.1XfXfXfX8X/.U.`.`.0X!.N.N.~.N.b.b.K.iXlXjX*XS G G G ",
"} y &.u > - l.,X<X<X8X9X^.'.wX<XA.y.i.A c b.7XbXBXMXzXhXS 5.i u ",
"} } | 6 q K z.f.H.F.F.m.M.F.S.A n i.p..Xt.:XiXBXBXCXVXnXH 7 d 4.",
"| >.0 < c.}.Z l c Z J.#XZ B A A y.p.p.C.C $XuXMXCXSXSXmX0.+ 9 u ",
",.i w I 4XOXZ B i.cXCX>XC b C v r.y.p.Y J u.-XxXMXAXAXAXhX7 5.j ",
">.a 0 K @XV.V V |.zXAXmX=Xi.b n v v r.b b J u.;XMXCXCXZX;X; q 9 ",
"] 4.F > K M M x a.XXjXvXvXkXkXvX>XiXlXMXjX;Xa.;XMXCXCXNX;X; 0 3.",
"_ %.%.5 e 6 w ; U &X|.c V oXlXvXbXcXoXXXE E b |.&X%X7X2X}.; > P ",
"*.! X.X.@.e 6 > @XOXOX#X#XZ V C..X$X>XxXzX;XV.B.7X7X7X1X@XI 6 i ",
"X.;.@.) ! ) u > L }.&XOXB.B.R b Y V.XX-Xu.C.%XK.dXsXdX1X5Xc.o >.",
"X.@.@.) ^ ` u > , M T }.|.C.C l x l U  XY V.%XD.eXeXdX3X4Xc.o r ",
"$.+.| [ d 0 0 w D , H a.=XXXu.J . z x U W V b.D.Q.W.W.S.l.6.9 ,.",
"1.' ' G F w 7 D 7 & H s.gX*XE x D O O U W R Z l N m 3 1 = 8 u >.",
",.t i F D 7 6 t t % # *   @ S H G P . @ 9.U ; k m : 2 g 8 j 3.>.",
">.a a [ d u e p r 1.1.1.:.:.<.<.>.i 7 D @ O D G 9 8 h h s [ d u ",
"[ [ } O.O.X.X.X.( } } ` ` { +.+.| 7.$ & <.H t 1.1.#.X.@.O.} 3.3.",
"y y _ ) o.o.o.o._ 4 4 y _ _ ) ^ ^ ` ' ,.:.S 2...-.-.~ o.X.e e u "
};
