/* XPM */
static char *xpm_[] = {
/* columns rows colors chars-per-pixel */
"32 32 216 2 ",
"   c #0B0C00",
".  c #160C00",
"X  c #0E1100",
"o  c #1C1402",
"O  c #1F1806",
"+  c #1E1C09",
"@  c #161A0B",
"#  c #1B1E11",
"$  c #250000",
"%  c #2E0D00",
"&  c #220A00",
"*  c #340D00",
"=  c #380D00",
"-  c #261402",
";  c #2F1100",
":  c #2D1B04",
">  c #251E0B",
",  c #2F1F0F",
"<  c #211B05",
"1  c #3A1500",
"2  c #331B02",
"3  c #3C1B03",
"4  c #331805",
"5  c #281F10",
"6  c #1F210B",
"7  c #1E2110",
"8  c #1E2619",
"9  c #232309",
"0  c #362700",
"q  c #35220B",
"w  c #39240C",
"e  c #3C2606",
"r  c #232314",
"t  c #262C1D",
"y  c #2B2C1B",
"u  c #2B2617",
"i  c #332613",
"p  c #3B2512",
"a  c #3A2C15",
"s  c #322F1C",
"d  c #3A2A1A",
"f  c #372B11",
"g  c #33311D",
"h  c #3C331A",
"j  c #2F2D20",
"k  c #2B3622",
"l  c #2E3D2B",
"z  c #323524",
"x  c #3C3322",
"c  c #3E3B24",
"v  c #363D2B",
"b  c #3C3E2A",
"n  c #363729",
"m  c #393F31",
"M  c #323E34",
"N  c #451C00",
"B  c #452303",
"V  c #482000",
"C  c #472907",
"Z  c #43230C",
"A  c #4A270D",
"S  c #4B290E",
"D  c #452E0E",
"F  c #522907",
"G  c #5C320C",
"H  c #432913",
"J  c #4B2E15",
"K  c #442E1A",
"L  c #4D2F18",
"P  c #473515",
"I  c #42311C",
"U  c #4D311A",
"Y  c #4D3E1F",
"T  c #5D3613",
"R  c #52351C",
"E  c #5A3813",
"W  c #623A18",
"Q  c #483726",
"!  c #543E25",
"~  c #653D23",
"^  c #1D4D3C",
"/  c #36412B",
"(  c #3C432D",
")  c #37492F",
"_  c #264436",
"`  c #294836",
"'  c #2C4C3D",
"]  c #28463A",
"[  c #3A4636",
"{  c #3C4A33",
"}  c #33463D",
"|  c #3E463A",
" . c #354C3D",
".. c #3C4C3C",
"X. c #344731",
"o. c #27523F",
"O. c #2D503C",
"+. c #34513D",
"@. c #3B543C",
"#. c #6B401E",
"$. c #6A451B",
"%. c #534020",
"&. c #57492F",
"*. c #424432",
"=. c #484732",
"-. c #424C35",
";. c #4B4B33",
":. c #414B3C",
">. c #46483C",
",. c #564C34",
"<. c #594D36",
"1. c #564734",
"2. c #4B5235",
"3. c #44543E",
"4. c #4C503D",
"5. c #485B3F",
"6. c #5A533B",
"7. c #595536",
"8. c #6C4223",
"9. c #6F472B",
"0. c #6F482B",
"q. c #67442E",
"w. c #714828",
"e. c #784E27",
"r. c #7F5228",
"t. c #76562F",
"y. c #6F503C",
"u. c #6C5B3F",
"i. c #745336",
"p. c #7B5539",
"a. c #765B3D",
"s. c #7C5C3D",
"d. c #7B5836",
"f. c #59603F",
"g. c #274D40",
"h. c #2D4E43",
"j. c #334E43",
"k. c #3C4D42",
"l. c #304D48",
"z. c #3A4F48",
"x. c #245244",
"c. c #2D5243",
"v. c #2D564B",
"b. c #2E5A4B",
"n. c #335244",
"m. c #3B5445",
"M. c #355B46",
"N. c #395B45",
"B. c #34554A",
"V. c #3B544C",
"C. c #345B4B",
"Z. c #395B4B",
"A. c #3B5551",
"S. c #345C51",
"D. c #3A5D51",
"F. c #3C604E",
"G. c #36614D",
"H. c #336152",
"J. c #3D6254",
"K. c #3B6058",
"L. c #444E41",
"P. c #4E4F41",
"I. c #415344",
"U. c #475846",
"Y. c #42554A",
"T. c #425B4B",
"R. c #4A5B4A",
"E. c #4F5B47",
"W. c #545443",
"Q. c #505841",
"!. c #5E5C42",
"~. c #585F4D",
"^. c #575647",
"/. c #425B53",
"(. c #4B5E58",
"). c #655C43",
"_. c #745D44",
"`. c #785E47",
"'. c #44614C",
"]. c #456152",
"[. c #4C6255",
"{. c #46645C",
"}. c #5E6651",
"|. c #6A6244",
" X c #6B624D",
".X c #6A6C4D",
"XX c #726144",
"oX c #7D6643",
"OX c #716847",
"+X c #756149",
"@X c #786048",
"#X c #786844",
"$X c #7F714E",
"%X c #686555",
"&X c #776852",
"*X c #6C745F",
"=X c #76715D",
"-X c #7E7564",
";X c #835B35",
":X c #825B3A",
">X c #875935",
",X c #82643E",
"<X c #866346",
"1X c #86644A",
"2X c #8C6A4A",
"3X c #8C6343",
"4X c #986E46",
"5X c #897047",
"6X c #8A7149",
"7X c #826C55",
"8X c #837256",
"9X c #9A7457",
"0X c #817762",
"qX c #8E8268",
"wX c #9C8565",
"eX c #8F8A76",
/* pixels */
"N.N.M.M.G.G.b.G.S.S.S.v.S.S.D.D.D.C.Z.m./.j.(.z.A.S.H.H.M.M.C.N.",
"G.@.M.M.M.b.C.b.v.v.K.v./.A./.Z.J.Z.].m.(.L.(./.A.S.b.C.C.G.C.N.",
"M.G.@.G.C.C.C.C.K.{.h.D.] A.j.T.m.@.R...R.Y.z.Y.B.B.C.C.C.Z.Z.N.",
"@.G.M.b.C.C.C.C.h.n.].T.{.L...l ) ) @./ >.L.M k.j.B.B.b.M.Z.B.C.",
"G.M.M.C.Z.C.Z.Z.m.N...R.{ E.3.Q.2.2.;.=.;.4.>.k. .+.c.B.C.Z.B.N.",
"M.M.C.C.C.Z.Z.N.[.U.| / b ( 6.u..X|.,.).<.^.%XE. .+.n.c.c.B.B.B.",
"C.C.C.Z.Z.N.V.I.m.l *Xk 0Xh ).Y 8X#X%.#X! 1.-XW...j.j.h.h.n.V.Y.",
"M.M.C.C.V.N.N.Y.E.}.y |.f 8X_.wXoXt.C a.H I -X*.:. .' g.h.l.V.V.",
"b.b.G.D.Z.V. ./ k X o qXP @Xa.C t.B E i._.`._.b | m.n.c.j.l.V.A.",
"C.C.C.Z.Z.N...[ v y o q & 3 C E W >XN 2X3 `.&XW.|  .+.c.h.l.z.A.",
"D.C.C.Z.V.I.m.| r < h q J = 1 N G ;XF ;X1 _.<.;...+.n.h.l.l.z.A.",
"C.D.B.Z.N.V.L.| [ X Q q U S 9.F G G 8.d.A `.- *.{ m.n.c.l.l.A.A.",
"C.C.Z./.T.Y.k.>.4.< d 4 3 J `.W #.#.W p.; 7X> 4.@.n.c.c.h.l.V.V.",
"C.V.Z.Z.T.V.L.| # s Q , R Z 9.~ 3X;X* 3 ; &X&X[  .O.c.c.c.l.V.V.",
"Z.Z.B.Z.V.m.:.| u x d 4 R = 1X~ 9X:X1 * Z +XeXk @.+.c.c.h.h.B.A.",
"J.D.B.m.n.m.k.| n O d K L % 9X$ ;Xd.W 1X2 &X).3.+.O.c.c.x.l.B.V.",
"C.D.D.V.j. .k.:.r g a a U N p.* 4Xe.$.5XP 7..X{ @.O.o.x.c.b.S.S.",
"D.S.D.A.j.j.j.:.7 i i w R S 2XN = $.$.5X0 7.f.5.@.O.o.c.v.b.S.S.",
"S.S.C.B.n.j.....t g d 2 U S <X* = ;XE ,Xe OX;.{ { +.' O.l.S.v.S.",
"S.S.C.B.j.j.k.:.@ r i : J J 1X1 >X,XF s.D XX2.( @.+. . .B.S.A.A.",
"S.C.B.c.n.j.k.k.@ 5 x q H Z y.= >Xe.8.<Xe 1. X4.>...} j.z.z.A.A.",
"H.C.B.c.j.j.k.:.k r Q i H 3 q.= 8.8.a.1Xq ,.=X*.:...} k.z.A.Y.A.",
"D.b.c.h.l.n.k.k.r   y 5 K p y.L p.i.! `.q 6.^.n :.k.} j.z.V.A.Y.",
"C.C.c.h.n.l.z.k.k.# j 5 p ; Q 4 _.u.2 u.< c t L.| j.j.j.z.V.V.A.",
"G.C.g.' ' h.j.j.} | t y u i 8X. 7.h 9 6 z :.:...j. .h.h.n.B.Z.Z.",
"Z.C.n.n.c.n.j.j.k.Y.[ m z y %XO -./ / { 3.I. ._ j.h.c.c.n.n.M.C.",
"Z.Z.Z.M.B.B.h.} } n.Y.I.:.[ ~.[ U.3.@.+.+. .l.h.n.B.B.b.M.G.H.M.",
"Z.n.M.Z.Z.B.h.g._ h.N.m.R.R.U.R.'.F.+.` _ ` c.C.g.c.b.M.G.b.G.G.",
"m.C.B.N.Z.C.C.v.H.C.Z.B.F.'.) N.@.+.M.M.Z.B.c.g.] o.c.C.b.M.M.b.",
"Z.N.m.Z.Z.J.D.S.H.H.b.C.M.F.o.G.+.G.C.J.K.D.A.h.h.c.B.C.G.G.G.G.",
"N.m.M.B.C.M.S.S.b.H.x.G.c.G.b.G.G.C.C.B.B.A.A.A.B.B.Z.Z.F.F.N.N.",
"n.@.n.n.B.v.v.x.x.H.^ G.^ x.b.o.c.c.B.v.v.l.l.l.B.l.n.n.n.n.+.+."
};
